<?xml version="1.0" encoding="utf-8"?>
<!-- Generator: Adobe Illustrator 23.1.0, SVG Export Plug-In . SVG Version: 6.00 Build 0)  -->
<svg version="1.1" id="Ebene_1" xmlns="http://www.w3.org/2000/svg" xmlns:xlink="http://www.w3.org/1999/xlink" x="0px" y="0px"
	 width="200.6px" height="69.3px" viewBox="0 0 200.6 69.3" style="enable-background:new 0 0 200.6 69.3;" xml:space="preserve">
<style type="text/css">
	.st0{fill:#C2202F;}
	.st1{fill:#FFFFFF;}
</style>
<title>logo</title>
<path class="st0" d="M1.4,48.1v-4.8C4.5,44.5,7.7,45,11,45c4.3,0,6.5-1.5,6.5-4.4c0-2.1-1.3-3.2-4-3.2H8.7c-5.8,0-8.7-2.7-8.7-8
	c0-5.8,4.1-8.7,12.4-8.7c3.1,0,6.1,0.5,9,1.4v4.8c-2.9-1.1-5.9-1.6-9-1.6c-4.8,0-7.1,1.4-7.1,4.2c0,2.1,1.2,3.2,3.4,3.2h4.8
	c6.2,0,9.3,2.6,9.3,7.9c0,5.9-3.9,8.9-11.8,8.9C7.8,49.6,4.5,49.1,1.4,48.1z"/>
<path class="st0" d="M29,21h5.7l8,13.7L50.1,21h5.5L45.1,39.4v9.9h-5.3v-9.9L29,21z"/>
<path class="st0" d="M63.5,49.3V21H69l9.6,21.5L88,21h5.3v28.3h-4.9V29.6l-7.7,19.7h-4.5l-7.9-19.7v19.7
	C68.3,49.3,63.5,49.3,63.5,49.3z"/>
<path class="st0" d="M124.7,48.1c-2.7,1-5.5,1.4-8.3,1.4c-10.2,0-15.3-4.9-15.3-14.8c0-9.3,5.1-14,15.3-14c2.8,0,5.7,0.4,8.3,1.4
	v4.8c-2.5-1.1-5.2-1.6-7.9-1.6c-6.8,0-10.2,3.1-10.2,9.4c0,6.8,3.4,10.2,10.2,10.2c2.7,0,5.4-0.5,7.9-1.6V48.1L124.7,48.1z"/>
<path class="st0" d="M173.1,49.3V21h5.3l15.8,20.3V21h5.1v28.3H194l-15.8-20.7v20.7H173.1L173.1,49.3z"/>
<path class="st0" d="M146,49.4h15.8V38.2l1.9,1.8l3.6-3.6L148.8,18l0,0l-18.4,18.4L134,40l1.8-1.8v11.2h5.1V33.1l8-8l8,8v11.2h-5.5
	V39H146V49.4z"/>
<polygon class="st0" points="6.7,66.6 159,66.6 159,61.4 0,61.4 "/>
<g>
	<path class="st0" d="M170.8,60c-0.5,0.6-0.9,1.2-1.2,1.6l-0.7,1.1c-0.3,0.4-0.6,0.7-0.8,1l1.3,1.9c0.5,0.7,1,1.4,1.4,1.8
		c0.1,0.1,0.2,0.3,0.2,0.4c0,0.2-0.1,0.3-0.2,0.4s-0.3,0.2-0.4,0.2c-0.1,0-0.3-0.1-0.4-0.2c-0.3-0.3-0.6-0.6-0.9-1.1l-0.8-1.2
		l-0.9-1.3l-2,2.3l-1.1,1.2c-0.1,0.1-0.3,0.2-0.4,0.2c-0.2,0-0.3-0.1-0.4-0.2s-0.2-0.3-0.2-0.4s0.1-0.3,0.2-0.4l1.1-1.2l2.2-2.5
		c-0.4-0.6-0.9-1.2-1.4-1.7l-0.7-0.9c-0.3-0.4-0.5-0.6-0.8-0.8c-0.2-0.1-0.2-0.3-0.2-0.5s0.1-0.3,0.2-0.4s0.3-0.2,0.4-0.2
		c0.3,0,0.8,0.4,1.3,1.1c0.2,0.2,0.4,0.6,0.7,1c0.4,0.5,0.9,1.1,1.3,1.6l1.3-1.9c0.9-1.2,1.4-1.8,1.7-1.8c0.2,0,0.3,0.1,0.4,0.2
		s0.2,0.3,0.2,0.4C170.9,59.7,170.9,59.9,170.8,60z"/>
	<path class="st0" d="M180.9,68.4c-0.2,0-0.4-0.1-0.5-0.3c-0.1-0.2-0.2-0.5-0.3-0.9l-0.2-1c-0.2-0.6-0.4-2-0.8-4.1l-1.2,3.5
		l-0.3,1.1c-0.1,0.4-0.3,0.8-0.4,1.1c-0.2,0.3-0.4,0.4-0.7,0.4c-0.2,0-0.4-0.1-0.5-0.4c-0.1-0.2-0.2-0.4-0.2-0.6l-0.2-0.7
		c-0.4-1.4-0.7-2.9-1-4.4l-0.2,1l-0.8,3.1c0,0.4-0.1,0.9-0.3,1.6c-0.1,0.3-0.3,0.5-0.6,0.5c-0.2,0-0.3-0.1-0.5-0.2
		c-0.1-0.1-0.1-0.3-0.1-0.4c0-0.7,0.1-1.5,0.4-2.4l0.6-2.4l0.3-1.8c0.2-0.9,0.4-1.4,0.5-1.7c0.2-0.2,0.3-0.3,0.6-0.3
		s0.4,0.1,0.6,0.4c0.2,0.3,0.3,1.1,0.5,2.1c0.2,1.3,0.5,2.7,1,4.2c0.6-1.5,1.1-3.1,1.5-4.7l0.2-0.9c0.1-0.3,0.2-0.6,0.3-0.8
		c0.2-0.3,0.4-0.4,0.6-0.4c0.3,0,0.6,0.3,0.8,1c0.1,0.2,0.1,0.7,0.2,1.4c0.2,1.8,0.5,3.3,0.9,4.5l0.3,1c0.1,0.5,0.2,0.9,0.2,1
		c0,0.2-0.1,0.3-0.2,0.4S181,68.4,180.9,68.4z"/>
	<path class="st0" d="M189.3,68.1c-0.4,0-0.7-0.5-0.9-1.4c-0.1-0.4-0.2-1-0.4-1.8c-0.4,0.1-0.9,0.2-1.6,0.3l-1.6,0.3
		c-0.2,0.5-0.5,1.3-1,2.2c-0.1,0.2-0.3,0.3-0.5,0.3s-0.3-0.1-0.4-0.2s-0.2-0.3-0.2-0.4c0-0.2,0.3-0.9,0.9-2.1
		c-0.1-0.1-0.1-0.2-0.1-0.4c0-0.3,0.2-0.5,0.6-0.6c0.4-0.8,1-1.8,1.7-2.9c0.9-1.5,1.5-2.2,1.7-2.2c0.3,0,0.5,0.2,0.6,0.6l0.4,2
		l0.9,4.1l0.3,0.9c0.1,0.3,0.2,0.5,0.2,0.6c0,0.2-0.1,0.3-0.2,0.4S189.4,68.1,189.3,68.1z M187.2,61.4l-1.7,2.7
		c0.5-0.1,1.2-0.3,2.2-0.4L187.2,61.4z"/>
	<path class="st0" d="M191.5,66.4c0-0.2,0.1-0.3,0.2-0.4s0.3-0.2,0.4-0.2c0.2,0,0.4,0.1,0.5,0.3c0.2,0.3,0.4,0.5,0.5,0.6
		c0.3,0.2,0.8,0.3,1.4,0.3c0.6,0,1.2-0.1,1.7-0.4c0.7-0.3,1-0.8,1-1.4c0-0.5-0.3-0.9-0.8-1.2c-0.5-0.2-1.1-0.4-1.8-0.4
		c-0.6,0-1.1-0.2-1.6-0.4c-0.6-0.3-0.8-0.8-0.8-1.4c0-0.7,0.4-1.3,1.2-1.9c0.8-0.5,1.5-0.8,2.3-0.8c0.4,0,0.8,0.1,1.3,0.2
		c0.6,0.2,0.9,0.4,0.9,0.6c0,0.3-0.2,0.5-0.5,0.5c-0.2,0-0.4,0-0.8-0.1s-0.7-0.1-0.9-0.1c-0.6,0-1.1,0.2-1.6,0.5
		c-0.4,0.3-0.7,0.7-0.7,1.1c0,0.3,0.3,0.6,0.9,0.7c0.2,0.1,0.6,0.1,1.2,0.1c0.9,0.1,1.6,0.3,2.1,0.8s0.7,1,0.7,1.7
		c0,0.9-0.4,1.7-1.3,2.2c-0.7,0.5-1.6,0.7-2.6,0.7c-0.7,0-1.4-0.1-2-0.4C191.9,67.5,191.5,67,191.5,66.4z"/>
</g>
<g id="layer1">
	<g id="g953">
		<path id="path931" d="M144,4.6c-0.2,0-0.3,0-0.4,0.1h-0.1c-0.1,0-0.3,0.1-0.3,0.1c-3.6,1.2-6.5,3.9-8.6,6.9
			c-1.9,2.7-3.2,5.6-3.8,7.9c-0.2,0-0.5,0-0.7,0.1l0,0c-0.7,0.2-1.2,0.8-1.3,1.5l0,0l0,0c-1,0.3-1.6,1.5-1.3,2.5l0,0
			c0.2,0.6,0.6,1,1.2,1.2c0,0.1,0,0.2,0.1,0.3l0,0c0.3,1,1.5,1.6,2.5,1.3l0,0c0.5-0.2,0.9-0.5,1.1-0.9c0.2,0,0.4,0,0.7-0.1l0,0
			c0.3-0.1,0.5-0.3,0.7-0.5c-0.2,0.6-0.2,1.2,0,1.7l0,0c0.2,0.5,0.6,1,1.1,1.3c0.7,0.9,2,1.3,3.1,0.9l0,0c0.3-0.1,0.6-0.3,0.8-0.5
			c0.6,0.3,1.4,0.3,2,0.1l0,0c0.5-0.2,0.9-0.5,1.2-0.9c0.7,0.3,1.4,0.4,2.1,0.1l0,0c0.3-0.1,0.6-0.3,0.8-0.5
			c0.5,0.1,1.1,0.1,1.6-0.1l0,0c0.6-0.2,1-0.6,1.4-1.1c0.6,0.2,1.3,0.3,2,0.1l0,0c0.5-0.2,1-0.6,1.3-1c0.7,0.3,1.4,0.3,2.1,0.1l0,0
			c0.5-0.2,1-0.5,1.3-1c0.3,0,0.6,0,1-0.1l0,0c0.5-0.2,1-0.5,1.3-1c0.6,0.1,1.1,0.1,1.7-0.1l0,0c0.5-0.2,0.9-0.5,1.2-0.8
			c0.2,0,0.5-0.1,0.7-0.1l0,0c0.8-0.3,1.5-1,1.7-1.8c0.9-0.7,1.4-2,1-3.1l0,0c-0.3-0.7-0.9-1.3-1.6-1.6c-0.6-0.7-1.6-0.9-2.5-0.8
			C153.6,7.8,148.8,4.7,144,4.6L144,4.6z M157,15.7C154.2,15.6,159.9,15.9,157,15.7C157.1,15.7,157.1,15.7,157,15.7h-0.1
			C157.5,15.7,159,15.6,157,15.7L157,15.7z M151.3,17.9C149.9,17.9,152.8,17.9,151.3,17.9c-1.2,0,0.4,0,0.1,0
			C151.4,17.9,151.3,17.9,151.3,17.9L151.3,17.9C148.4,18.1,154.1,17.7,151.3,17.9L151.3,17.9z M150.6,18h-0.1l0,0c0,0,0,0-0.1,0
			h0.1C149.1,18.5,151.9,17.6,150.6,18C149.3,18.4,151.1,17.9,150.6,18L150.6,18z M148.4,19.1L148.4,19.1c-2.8-0.1,2.9,0.2,0.1,0
			C148.5,19.1,148.5,19.1,148.4,19.1L148.4,19.1C148.8,19.1,150.5,19.1,148.4,19.1z M144.9,20C143.5,20.1,146.4,20.1,144.9,20
			c-1.1,0,0.4,0,0.1,0H144.9L144.9,20C142,20.3,147.7,19.9,144.9,20L144.9,20z M142.8,20.7L142.8,20.7
			C140,20.5,145.7,20.9,142.8,20.7L142.8,20.7C142.8,20.7,142.7,20.7,142.8,20.7C143,20.7,143.7,20.7,142.8,20.7
			C141.3,20.8,144.2,20.7,142.8,20.7L142.8,20.7z M140,21.4L140,21.4c-2.8-0.1,3,0.2,0.1,0C140.1,21.4,140.1,21.4,140,21.4L140,21.4
			C140.6,21.4,141.9,21.3,140,21.4L140,21.4z M135.3,21.8c0,0.3,0.1,0.6,0.1,0.9c-0.4,0.3-0.7,0.7-0.9,1.2c-0.1,0.1-0.3,0.2-0.4,0.4
			c0.1-0.4,0.2-0.7,0-1.1l0,0v-0.1C134.5,22.7,134.9,22.3,135.3,21.8L135.3,21.8z M137,22.2C134.2,22.1,139.9,22.3,137,22.2
			C137.1,22.2,137.1,22.2,137,22.2C137.1,22.2,137.1,22.2,137,22.2C137.1,22.2,137.1,22.2,137,22.2L137,22.2z M137,22.2L137,22.2
			L137,22.2C137.6,22.1,138.9,22.1,137,22.2L137,22.2z"/>
		<path id="rect817" class="st0" d="M143.3,5.5c-6.7,2.2-11.3,10.6-12.1,15.1c0.1,0.1,0.2,0.1,0.3,0.2c0.1,0,0.2-0.1,0.2-0.1
			c0.7-0.2,1.4,0.2,1.6,0.8c0.1,0.4,0,0.9-0.2,1.2l0.1,0.1c0.7-0.5,1.6-1.5,2.8-2.9c0,0-0.1,0-0.1-0.2c0-0.1,0-0.2,0-0.3
			c0-0.2,0.1-0.5,0.2-0.8c0.2-0.6,0.5-1.4,1-2.2c0.1-0.1,0.1-0.2,0.2-0.3c0.4-0.7,0.9-1.3,1.4-1.7c0.3-0.3,0.6-0.5,0.9-0.6
			c0.5-0.2,0.9-0.1,0.9,0s-0.3,0.1-0.7,0.3c-0.2,0.1-0.5,0.3-0.7,0.6c-0.4,0.5-0.8,1-1.3,1.7c-0.1,0.1-0.1,0.2-0.2,0.3
			c-0.5,0.8-0.8,1.4-1.1,2.1c-0.1,0.3-0.2,0.5-0.3,0.7c0,0.1,0,0.2-0.1,0.2c0,0.1,0,0.2,0,0.2c-0.1,0.6,0,1.8,0.2,3.1
			c0,0,0.1,0,0.1-0.1c0.6-0.2,1.3-0.1,1.9,0.2c0.2-0.5,0.6-0.8,1.1-1c0.6-0.2,1.2-0.2,1.7,0.1c0.2-0.4,0.6-0.6,1-0.8
			c0.4-0.2,0.9-0.2,1.4,0c0.2-0.3,0.6-0.5,0.9-0.6c0.7-0.3,1.6-0.1,2.1,0.4c0.2-0.6,0.7-1.1,1.3-1.4c0.6-0.2,1.2-0.2,1.7,0.1
			c0.2-0.6,0.7-1.1,1.3-1.4c0.5-0.2,1.1-0.2,1.6,0.1c0.2-0.7,0.7-1.2,1.3-1.4c0.5-0.2,1.1-0.2,1.6,0.1c0.2-0.4,0.6-0.7,1.1-0.9
			c0.4-0.2,0.9-0.2,1.3,0c0.2-0.3,0.5-0.6,0.9-0.8C156,11.9,148.8,3.7,143.3,5.5z"/>
		<path id="path881" class="st1" d="M136.5,23.2c0.6-0.2,1.3-0.1,1.9,0.2c0.2-0.5,0.6-0.8,1.1-1c0.6-0.2,1.2-0.2,1.7,0.1
			c0.2-0.4,0.6-0.6,1-0.8c0.4-0.2,0.9-0.2,1.4,0c0.2-0.3,0.6-0.5,0.9-0.6c0.7-0.3,1.6-0.1,2.1,0.4c0.2-0.6,0.7-1.1,1.3-1.4
			c0.6-0.2,1.2-0.2,1.7,0.1c0.2-0.6,0.7-1.1,1.3-1.4c0.5-0.2,1.1-0.2,1.6,0.1c0.2-0.7,0.7-1.2,1.3-1.4c0.5-0.2,1.1-0.2,1.6,0.1
			c0.2-0.4,0.6-0.7,1.1-0.9c0.4-0.2,0.9-0.2,1.3,0c0.2-0.4,0.6-0.7,1-0.8c0.8-0.3,1.8,0,2.3,0.6c0.6,0.2,1.1,0.6,1.3,1.2
			c0.3,0.9-0.1,1.9-1,2.4c-0.1,0.7-0.6,1.3-1.3,1.6c-0.3,0.1-0.5,0.1-0.8,0.1c-0.3,0.4-0.7,0.7-1.1,0.9c-0.6,0.2-1.2,0.2-1.7-0.1
			c-0.2,0.5-0.7,1-1.2,1.2c-0.4,0.1-0.7,0.2-1.1,0.1c-0.2,0.5-0.7,0.8-1.2,1c-0.7,0.3-1.6,0.1-2.1-0.4c-0.2,0.6-0.7,1.1-1.3,1.4
			c-0.7,0.3-1.5,0.1-2.1-0.4c-0.2,0.7-0.7,1.2-1.3,1.4c-0.5,0.2-1.1,0.2-1.5,0c-0.2,0.3-0.5,0.5-0.9,0.6c-0.7,0.3-1.5,0.1-2.1-0.4
			c-0.2,0.5-0.7,1-1.2,1.2c-0.6,0.2-1.4,0.1-1.9-0.2c-0.2,0.3-0.6,0.5-0.9,0.7c-0.9,0.3-1.9,0-2.4-0.8c-0.4-0.2-0.7-0.6-0.9-1
			c-0.3-0.9,0-1.9,0.9-2.4C135.4,23.9,135.9,23.4,136.5,23.2L136.5,23.2z"/>
		<path id="path883" class="st1" d="M129.9,20.7c0.5-0.2,1,0,1.3,0.4c0.1,0,0.2-0.1,0.2-0.1c0.7-0.2,1.4,0.2,1.6,0.8l0,0
			c0.1,0.4,0,0.9-0.2,1.2c0.2,0.1,0.3,0.3,0.3,0.5c0.2,0.7-0.2,1.4-0.8,1.6l0,0c-0.3,0.1-0.6,0.1-0.9,0c-0.1,0.5-0.4,0.9-0.9,1.1
			c-0.7,0.2-1.4-0.2-1.6-0.8c-0.1-0.2-0.1-0.4,0-0.7c-0.6,0-1-0.4-1.2-0.9c-0.2-0.7,0.2-1.4,0.8-1.6c0.1,0,0.3-0.1,0.4-0.1
			C128.9,21.5,129.3,20.9,129.9,20.7L129.9,20.7z"/>
	</g>
</g>
</svg>
